<?xml version="1.0" encoding="UTF-8" standalone="no"?>
<svg xmlns="http://www.w3.org/2000/svg" xmlns:xlink="http://www.w3.org/1999/xlink" width="250.489mm" height="416.239mm" viewBox="3.006813 -417.378510 250.488708 416.239075">
    <path transform="matrix(0.696286,0,0,-0.912259,159.080841,102.293213)" style="stroke:#0000ff;stroke-width:0.071810mm;fill:none" d="M34.819969,264.605164L45.061485,259.754913C43.334969,263.500397,39.20768,268.361725,35.850647,271.71875C32.850647,274.71875,28.965256,276.1922,27.773384,277.067078C27.081169,277.809387,26.693169,278.785034,26.686562,279.799988C26.62294,281.443176,26.603928,283.088165,26.629547,284.732483L26.627708,285.562683C26.648338,287.114441,27.05368,292.562744,27.394196,295.593323C25.317062,293.039429,17.62146,293.822632,15.719284,294.23468C15.932068,293.592773,18.563004,288.013794,18.8974,287.426025C19.673622,285.984619,20.507423,284.57489,21.396751,283.200409L21.5905,282.883118C22.185417,281.959625,22.687927,280.979797,23.090782,279.957764C23.359016,279.302917,23.455223,278.590088,23.369987,277.887573C23.230164,277.321716,22.95372,276.798767,22.56469,276.364685C21.237877,275.145172,17.356102,271.510162,14.719292,268.234711C11.670212,264.447174,7.769302,258.034729,6.719299,256.234741C9.055099,257.801636,12.364334,258.775452,14.872192,260.049042C15.805817,260.530396,16.782631,260.923218,17.789581,261.222229C17.812843,261.229675,17.836548,261.235626,17.860443,261.240662L17.786499,261.166412C16.24086,259.671051,14.581352,258.297974,12.822983,257.059692C12.491371,256.817444,12.171181,256.58429,11.838821,256.34314L11.356247,255.991531C10.143913,255.139313,8.916077,254.380768,7.895164,253.208649C6.026596,251.063339,4.646423,248.924438,3.719307,246.234756C2.799751,243.566986,1.874237,239.424927,1.723953,238.541794C2.637619,239.221222,6.216766,241.495956,8.810417,242.764374C10.566849,243.623367,13.23349,244.491776,14.014038,244.7966C11.684334,243.011505,8.510132,240.204742,6.390831,238.174225C5.167191,237.010925,3.084244,234.97467,2.014053,232.796631C0.65448,230.029633,-0.060417,224.371521,0.003708,224.220596C0.670815,224.910767,3.798271,227.655792,5.566917,229.029938C6.587906,229.823181,8.09771,230.609772,8.775192,230.861145C8.895805,230.888596,6.37915,227.752716,5.713722,226.77356L5.163422,225.949905C4.59301,225.112549,1.939629,219.633759,1.014061,213.796661C0.049805,207.715591,0.82502,201.271881,0.86779,200.616791C1.98896,202.119751,8.106262,208.115799,9.500328,209.369812C8.677383,207.333847,5.11055,200.801987,4.014053,195.796692C3.083519,191.548981,2.676567,187.669464,3.427902,183.386414C3.984352,180.214325,5.484764,177.752151,6.964493,174.891708C7.679878,173.508804,8.973969,171.688629,9.328583,171.123383L11.84343,178.852356C11.419998,175.03476,11.735756,170.065491,13.216812,166.5215C13.865913,164.973663,14.805893,163.564667,15.985771,162.370926C16.931923,161.478821,17.962463,160.680618,19.06282,159.987625C21.521393,158.427109,24.076469,157.024216,26.712738,155.787354C28.038536,155.148438,29.379585,154.541077,30.734276,153.965988C30.058601,157.893494,29.589745,161.853607,29.329659,165.830368C29.241127,167.078644,29.249115,168.331894,29.353584,169.578934C29.510574,170.737778,29.761131,171.882034,30.102791,173.000427C30.631432,174.749634,31.165001,176.489807,31.707939,178.235199L31.907967,178.92421C32.500641,180.867584,32.895409,182.865967,33.08622,184.888718C33.326477,187.350586,32.890472,189.832031,31.825386,192.064545L28.027054,197.947159C28.111496,198.000824,32.283768,195.066025,34.082802,193.00499C35.056747,191.889206,36.765747,189.601685,36.854523,189.408676C36.901489,189.306549,39.991699,201.03006,40.013992,207.796677C40.030609,212.841064,38.73774,218.128922,37.956619,222.456558C37.708832,223.941925,37.379089,225.412384,36.96888,226.861328L36.970474,226.860077L36.981354,226.844223L45.013985,217.796661C45.608437,220.301361,45.774124,225.666016,45.013985,229.796631C43.590477,237.532013,38.400963,245.740173,39.013992,247.7966L48.013977,235.796631C47.713974,238.346619,47.554398,247.37085,45.013985,252.796585C42.599144,257.954132,36.499077,262.833862,34.819969,264.605164z"/>
    <path transform="matrix(0.696286,0,0,-0.912259,159.080841,102.293213)" style="stroke:#0000ff;stroke-width:0.071810mm;fill:none" d="M25.014015,222.796661C24.475716,219.155792,23.393814,215.294495,22.752068,212.527252C22.407578,210.969193,22.175217,209.388458,22.056801,207.79715C21.76152,203.825348,21.646439,199.842468,21.711899,195.860229L21.801025,179.346588L21.535583,181.26593C21.076263,185.109894,20.717133,188.964172,20.458336,192.826859C20.168747,196.432327,19.999466,200.046112,19.950768,203.662933C19.884842,206.384827,20.037109,209.107727,20.406097,211.805298C20.85759,214.474945,23.206528,224.801727,23.486069,227.573914C23.705505,229.750061,23.960594,236.200439,23.949036,237.396454L23.955612,237.70462C24.002647,239.526596,24.053673,241.342789,24.109161,243.16394C24.194054,247.820007,24.324425,252.478912,24.499939,257.13269C24.536034,258.496887,24.624596,259.85907,24.765404,261.216431L25.079399,263.238586C25.165092,263.183655,25.418442,260.181549,25.449593,259.375488C25.623817,256.521912,25.725136,253.664566,25.753448,250.805786L25.78315,249.16539C25.809654,247.590408,25.835045,245.977234,25.858673,244.40094L25.908852,241.615448L25.919395,241.108093C25.96534,239.337784,25.996895,237.567535,26.014015,235.796631C25.864014,233.846649,25.681458,227.31102,25.014015,222.796661z"/>
    <circle transform="matrix(-0.801574,-0,0,-0.800628,174.687164,-162.186249)" style="stroke:#0000ff;stroke-width:0.062451mm;fill:none" r="1.836568" cx="0" cy="0"/>
    <path transform="matrix(0.696286,0,0,-0.912259,67.053238,105.446777)" style="stroke:#0000ff;stroke-width:0.071810mm;fill:none" d="M34.819969,264.605164L45.061485,259.754913C43.334969,263.500397,39.20768,268.361725,35.850647,271.71875C32.850647,274.71875,28.965256,276.1922,27.773384,277.067078C27.081169,277.809387,26.693169,278.785034,26.686562,279.799988C26.62294,281.443176,26.603928,283.088165,26.629547,284.732483L26.627708,285.562683C26.648338,287.114441,27.05368,292.562744,27.394196,295.593323C25.317062,293.039429,17.62146,293.822632,15.719284,294.23468C15.932068,293.592773,18.563004,288.013794,18.8974,287.426025C19.673622,285.984619,20.507423,284.57489,21.396751,283.200409L21.5905,282.883118C22.185417,281.959625,22.687927,280.979797,23.090782,279.957764C23.359016,279.302917,23.455223,278.590088,23.369987,277.887573C23.230164,277.321716,22.95372,276.798767,22.56469,276.364685C21.237877,275.145172,17.356102,271.510162,14.719292,268.234711C11.670212,264.447174,7.769302,258.034729,6.719299,256.234741C9.055099,257.801636,12.364334,258.775452,14.872192,260.049042C15.805817,260.530396,16.782631,260.923218,17.789581,261.222229C17.812843,261.229675,17.836548,261.235626,17.860443,261.240662L17.786499,261.166412C16.24086,259.671051,14.581352,258.297974,12.822983,257.059692C12.491371,256.817444,12.171181,256.58429,11.838821,256.34314L11.356247,255.991531C10.143913,255.139313,8.916077,254.380768,7.895164,253.208649C6.026596,251.063339,4.646423,248.924438,3.719307,246.234756C2.799751,243.566986,1.874237,239.424927,1.723953,238.541794C2.637619,239.221222,6.216766,241.495956,8.810417,242.764374C10.566849,243.623367,13.23349,244.491776,14.014038,244.7966C11.684334,243.011505,8.510132,240.204742,6.390831,238.174225C5.167191,237.010925,3.084244,234.97467,2.014053,232.796631C0.65448,230.029633,-0.060417,224.371521,0.003708,224.220596C0.670815,224.910767,3.798271,227.655792,5.566917,229.029938C6.587906,229.823181,8.09771,230.609772,8.775192,230.861145C8.895805,230.888596,6.37915,227.752716,5.713722,226.77356L5.163422,225.949905C4.59301,225.112549,1.939629,219.633759,1.014061,213.796661C0.049805,207.715591,0.82502,201.271881,0.86779,200.616791C1.98896,202.119751,8.106262,208.115799,9.500328,209.369812C8.677383,207.333847,5.11055,200.801987,4.014053,195.796692C3.083519,191.548981,2.676567,187.669464,3.427902,183.386414C3.984352,180.214325,5.484764,177.752151,6.964493,174.891708C7.679878,173.508804,8.973969,171.688629,9.328583,171.123383L11.84343,178.852356C11.419998,175.03476,11.735756,170.065491,13.216812,166.5215C13.865913,164.973663,14.805893,163.564667,15.985771,162.370926C16.931923,161.478821,17.962463,160.680618,19.06282,159.987625C21.521393,158.427109,24.076469,157.024216,26.712738,155.787354C28.038536,155.148438,29.379585,154.541077,30.734276,153.965988C30.058601,157.893494,29.589745,161.853607,29.329659,165.830368C29.241127,167.078644,29.249115,168.331894,29.353584,169.578934C29.510574,170.737778,29.761131,171.882034,30.102791,173.000427C30.631432,174.749634,31.165001,176.489807,31.707939,178.235199L31.907967,178.92421C32.500641,180.867584,32.895409,182.865967,33.08622,184.888718C33.326477,187.350586,32.890472,189.832031,31.825386,192.064545L28.027054,197.947159C28.111496,198.000824,32.283768,195.066025,34.082802,193.00499C35.056747,191.889206,36.765747,189.601685,36.854523,189.408676C36.901489,189.306549,39.991699,201.03006,40.013992,207.796677C40.030609,212.841064,38.73774,218.128922,37.956619,222.456558C37.708832,223.941925,37.379089,225.412384,36.96888,226.861328L36.970474,226.860077L36.981354,226.844223L45.013985,217.796661C45.608437,220.301361,45.774124,225.666016,45.013985,229.796631C43.590477,237.532013,38.400963,245.740173,39.013992,247.7966L48.013977,235.796631C47.713974,238.346619,47.554398,247.37085,45.013985,252.796585C42.599144,257.954132,36.499077,262.833862,34.819969,264.605164z"/>
    <path transform="matrix(0.696286,0,0,-0.912259,67.053238,105.446777)" style="stroke:#0000ff;stroke-width:0.071810mm;fill:none" d="M25.014015,222.796661C24.475716,219.155792,23.393814,215.294495,22.752068,212.527252C22.407578,210.969193,22.175217,209.388458,22.056801,207.79715C21.76152,203.825348,21.646439,199.842468,21.711899,195.860229L21.801025,179.346588L21.535583,181.26593C21.076263,185.109894,20.717133,188.964172,20.458336,192.826859C20.168747,196.432327,19.999466,200.046112,19.950768,203.662933C19.884842,206.384827,20.037109,209.107727,20.406097,211.805298C20.85759,214.474945,23.206528,224.801727,23.486069,227.573914C23.705505,229.750061,23.960594,236.200439,23.949036,237.396454L23.955612,237.70462C24.002647,239.526596,24.053673,241.342789,24.109161,243.16394C24.194054,247.820007,24.324425,252.478912,24.499939,257.13269C24.536034,258.496887,24.624596,259.85907,24.765404,261.216431L25.079399,263.238586C25.165092,263.183655,25.418442,260.181549,25.449593,259.375488C25.623817,256.521912,25.725136,253.664566,25.753448,250.805786L25.78315,249.16539C25.809654,247.590408,25.835045,245.977234,25.858673,244.40094L25.908852,241.615448L25.919395,241.108093C25.96534,239.337784,25.996895,237.567535,26.014015,235.796631C25.864014,233.846649,25.681458,227.31102,25.014015,222.796661z"/>
    <circle transform="matrix(-0.801574,-0,0,-0.800628,82.659546,-159.032684)" style="stroke:#0000ff;stroke-width:0.062451mm;fill:none" r="1.836568" cx="0" cy="0"/>
    <path transform="matrix(0.696286,0,0,-0.764059,29.05323,38.639664)" style="stroke:#0000ff;stroke-width:0.071810mm;fill:none" d="M25.014015,222.796661C24.475716,219.155792,23.393814,215.294495,22.752068,212.527252C22.407578,210.969193,22.175217,209.388458,22.056801,207.79715C21.76152,203.825348,21.646439,199.842468,21.711899,195.860229L21.801025,179.346588L21.535583,181.26593C21.076263,185.109894,20.717133,188.964172,20.458336,192.826859C20.168747,196.432327,19.999466,200.046112,19.950768,203.662933C19.884842,206.384827,20.037109,209.107727,20.406097,211.805298C20.85759,214.474945,23.206528,224.801727,23.486069,227.573914C23.705505,229.750061,23.960594,236.200439,23.949036,237.396454L23.955612,237.70462C24.002647,239.526596,24.053673,241.342789,24.109161,243.16394C24.194054,247.820007,24.324425,252.478912,24.499939,257.13269C24.536034,258.496887,24.624596,259.85907,24.765404,261.216431L25.079399,263.238586C25.165092,263.183655,25.418442,260.181549,25.449593,259.375488C25.623817,256.521912,25.725136,253.664566,25.753448,250.805786L25.78315,249.16539C25.809654,247.590408,25.835045,245.977234,25.858673,244.40094L25.908852,241.615448L25.919395,241.108093C25.96534,239.337784,25.996895,237.567535,26.014015,235.796631C25.864014,233.846649,25.681458,227.31102,25.014015,222.796661z"/>
    <circle transform="matrix(-0.801574,-0,0,-0.800628,44.659538,-182.032684)" style="stroke:#0000ff;stroke-width:0.062451mm;fill:none" r="1.836568" cx="0" cy="0"/>
    <path transform="matrix(0.696286,0,0,-0.764059,29.05323,38.639664)" style="stroke:#0000ff;stroke-width:0.071810mm;fill:none" d="M34.819969,264.605164L45.061485,259.754913C43.334969,263.500397,39.20768,268.361725,35.850647,271.71875C32.850647,274.71875,28.965256,276.1922,27.773384,277.067078C27.081169,277.809387,26.693169,278.785034,26.686562,279.799988C26.62294,281.443176,26.603928,283.088165,26.629547,284.732483L26.627708,285.562683C26.648338,287.114441,27.05368,292.562744,27.394196,295.593323C25.317062,293.039429,17.62146,293.822632,15.719284,294.23468C15.932068,293.592773,18.563004,288.013794,18.8974,287.426025C19.673622,285.984619,20.507423,284.57489,21.396751,283.200409L21.5905,282.883118C22.185417,281.959625,22.687927,280.979797,23.090782,279.957764C23.359016,279.302917,23.455223,278.590088,23.369987,277.887573C23.230164,277.321716,22.95372,276.798767,22.56469,276.364685C21.237877,275.145172,17.356102,271.510162,14.719292,268.234711C11.670212,264.447174,7.769302,258.034729,6.719299,256.234741C9.055099,257.801636,12.364334,258.775452,14.872192,260.049042C15.805817,260.530396,16.782631,260.923218,17.789581,261.222229C17.812843,261.229675,17.836548,261.235626,17.860443,261.240662L17.786499,261.166412C16.24086,259.671051,14.581352,258.297974,12.822983,257.059692C12.491371,256.817444,12.171181,256.58429,11.838821,256.34314L11.356247,255.991531C10.143913,255.139313,8.916077,254.380768,7.895164,253.208649C6.026596,251.063339,4.646423,248.924438,3.719307,246.234756C2.799751,243.566986,1.874237,239.424927,1.723953,238.541794C2.637619,239.221222,6.216766,241.495956,8.810417,242.764374C10.566849,243.623367,13.23349,244.491776,14.014038,244.7966C11.684334,243.011505,8.510132,240.204742,6.390831,238.174225C5.167191,237.010925,3.084244,234.97467,2.014053,232.796631C0.65448,230.029633,-0.060417,224.371521,0.003708,224.220596C0.670815,224.910767,3.798271,227.655792,5.566917,229.029938C6.587906,229.823181,8.09771,230.609772,8.775192,230.861145C8.895805,230.888596,6.37915,227.752716,5.713722,226.77356L5.163422,225.949905C4.59301,225.112549,1.939629,219.633759,1.014061,213.796661C0.049805,207.715591,0.82502,201.271881,0.86779,200.616791C1.98896,202.119751,8.106262,208.115799,9.500328,209.369812C8.677383,207.333847,5.11055,200.801987,4.014053,195.796692C3.083519,191.548981,2.676567,187.669464,3.427902,183.386414C3.984352,180.214325,5.484764,177.752151,6.964493,174.891708C7.679878,173.508804,8.973969,171.688629,9.328583,171.123383L11.84343,178.852356C11.419998,175.03476,11.735756,170.065491,13.216812,166.5215C13.865913,164.973663,14.805893,163.564667,15.985771,162.370926C16.931923,161.478821,17.962463,160.680618,19.06282,159.987625C21.521393,158.427109,24.076469,157.024216,26.712738,155.787354C28.038536,155.148438,29.379585,154.541077,30.734276,153.965988C30.058601,157.893494,29.589745,161.853607,29.329659,165.830368C29.241127,167.078644,29.249115,168.331894,29.353584,169.578934C29.510574,170.737778,29.761131,171.882034,30.102791,173.000427C30.631432,174.749634,31.165001,176.489807,31.707939,178.235199L31.907967,178.92421C32.500641,180.867584,32.895409,182.865967,33.08622,184.888718C33.326477,187.350586,32.890472,189.832031,31.825386,192.064545L28.027054,197.947159C28.111496,198.000824,32.283768,195.066025,34.082802,193.00499C35.056747,191.889206,36.765747,189.601685,36.854523,189.408676C36.901489,189.306549,39.991699,201.03006,40.013992,207.796677C40.030609,212.841064,38.73774,218.128922,37.956619,222.456558C37.708832,223.941925,37.379089,225.412384,36.96888,226.861328L36.970474,226.860077L36.981354,226.844223L45.013985,217.796661C45.608437,220.301361,45.774124,225.666016,45.013985,229.796631C43.590477,237.532013,38.400963,245.740173,39.013992,247.7966L48.013977,235.796631C47.713974,238.346619,47.554398,247.37085,45.013985,252.796585C42.599144,257.954132,36.499077,262.833862,34.819969,264.605164z"/>
    <path transform="matrix(0.696286,0,0,-1.038005,113.793549,158.678055)" style="stroke:#0000ff;stroke-width:0.071810mm;fill:none" d="M25.014015,222.796661C24.475716,219.155792,23.393814,215.294495,22.752068,212.527252C22.407578,210.969193,22.175217,209.388458,22.056801,207.79715C21.76152,203.825348,21.646439,199.842468,21.711899,195.860229L21.801025,179.346588L21.535583,181.26593C21.076263,185.109894,20.717133,188.964172,20.458336,192.826859C20.168747,196.432327,19.999466,200.046112,19.950768,203.662933C19.884842,206.384827,20.037109,209.107727,20.406097,211.805298C20.85759,214.474945,23.206528,224.801727,23.486069,227.573914C23.705505,229.750061,23.960594,236.200439,23.949036,237.396454L23.955612,237.70462C24.002647,239.526596,24.053673,241.342789,24.109161,243.16394C24.194054,247.820007,24.324425,252.478912,24.499939,257.13269C24.536034,258.496887,24.624596,259.85907,24.765404,261.216431L25.079399,263.238586C25.165092,263.183655,25.418442,260.181549,25.449593,259.375488C25.623817,256.521912,25.725136,253.664566,25.753448,250.805786L25.78315,249.16539C25.809654,247.590408,25.835045,245.977234,25.858673,244.40094L25.908852,241.615448L25.919395,241.108093C25.96534,239.337784,25.996895,237.567535,26.014015,235.796631C25.864014,233.846649,25.681458,227.31102,25.014015,222.796661z"/>
    <path transform="matrix(0.696286,0,0,-1.038005,113.793549,158.678055)" style="stroke:#0000ff;stroke-width:0.071810mm;fill:none" d="M34.819969,264.605164L45.061485,259.754913C43.334969,263.500397,39.20768,268.361725,35.850647,271.71875C32.850647,274.71875,28.965256,276.1922,27.773384,277.067078C27.081169,277.809387,26.693169,278.785034,26.686562,279.799988C26.62294,281.443176,26.603928,283.088165,26.629547,284.732483L26.627708,285.562683C26.648338,287.114441,27.05368,292.562744,27.394196,295.593323C25.317062,293.039429,17.62146,293.822632,15.719284,294.23468C15.932068,293.592773,18.563004,288.013794,18.8974,287.426025C19.673622,285.984619,20.507423,284.57489,21.396751,283.200409L21.5905,282.883118C22.185417,281.959625,22.687927,280.979797,23.090782,279.957764C23.359016,279.302917,23.455223,278.590088,23.369987,277.887573C23.230164,277.321716,22.95372,276.798767,22.56469,276.364685C21.237877,275.145172,17.356102,271.510162,14.719292,268.234711C11.670212,264.447174,7.769302,258.034729,6.719299,256.234741C9.055099,257.801636,12.364334,258.775452,14.872192,260.049042C15.805817,260.530396,16.782631,260.923218,17.789581,261.222229C17.812843,261.229675,17.836548,261.235626,17.860443,261.240662L17.786499,261.166412C16.24086,259.671051,14.581352,258.297974,12.822983,257.059692C12.491371,256.817444,12.171181,256.58429,11.838821,256.34314L11.356247,255.991531C10.143913,255.139313,8.916077,254.380768,7.895164,253.208649C6.026596,251.063339,4.646423,248.924438,3.719307,246.234756C2.799751,243.566986,1.874237,239.424927,1.723953,238.541794C2.637619,239.221222,6.216766,241.495956,8.810417,242.764374C10.566849,243.623367,13.23349,244.491776,14.014038,244.7966C11.684334,243.011505,8.510132,240.204742,6.390831,238.174225C5.167191,237.010925,3.084244,234.97467,2.014053,232.796631C0.65448,230.029633,-0.060417,224.371521,0.003708,224.220596C0.670815,224.910767,3.798271,227.655792,5.566917,229.029938C6.587906,229.823181,8.09771,230.609772,8.775192,230.861145C8.895805,230.888596,6.37915,227.752716,5.713722,226.77356L5.163422,225.949905C4.59301,225.112549,1.939629,219.633759,1.014061,213.796661C0.049805,207.715591,0.82502,201.271881,0.86779,200.616791C1.98896,202.119751,8.106262,208.115799,9.500328,209.369812C8.677383,207.333847,5.11055,200.801987,4.014053,195.796692C3.083519,191.548981,2.676567,187.669464,3.427902,183.386414C3.984352,180.214325,5.484764,177.752151,6.964493,174.891708C7.679878,173.508804,8.973969,171.688629,9.328583,171.123383L11.84343,178.852356C11.419998,175.03476,11.735756,170.065491,13.216812,166.5215C13.865913,164.973663,14.805893,163.564667,15.985771,162.370926C16.931923,161.478821,17.962463,160.680618,19.06282,159.987625C21.521393,158.427109,24.076469,157.024216,26.712738,155.787354C28.038536,155.148438,29.379585,154.541077,30.734276,153.965988C30.058601,157.893494,29.589745,161.853607,29.329659,165.830368C29.241127,167.078644,29.249115,168.331894,29.353584,169.578934C29.510574,170.737778,29.761131,171.882034,30.102791,173.000427C30.631432,174.749634,31.165001,176.489807,31.707939,178.235199L31.907967,178.92421C32.500641,180.867584,32.895409,182.865967,33.08622,184.888718C33.326477,187.350586,32.890472,189.832031,31.825386,192.064545L28.027054,197.947159C28.111496,198.000824,32.283768,195.066025,34.082802,193.00499C35.056747,191.889206,36.765747,189.601685,36.854523,189.408676C36.901489,189.306549,39.991699,201.03006,40.013992,207.796677C40.030609,212.841064,38.73774,218.128922,37.956619,222.456558C37.708832,223.941925,37.379089,225.412384,36.96888,226.861328L36.970474,226.860077L36.981354,226.844223L45.013985,217.796661C45.608437,220.301361,45.774124,225.666016,45.013985,229.796631C43.590477,237.532013,38.400963,245.740173,39.013992,247.7966L48.013977,235.796631C47.713974,238.346619,47.554398,247.37085,45.013985,252.796585C42.599144,257.954132,36.499077,262.833862,34.819969,264.605164z"/>
    <circle transform="matrix(-0.801574,-0,0,-0.800628,129.399857,-142.971054)" style="stroke:#0000ff;stroke-width:0.062451mm;fill:none" r="1.836568" cx="0" cy="0"/>
    <path transform="matrix(0.696286,0,0,-0.757659,198.81488,37.10939)" style="stroke:#0000ff;stroke-width:0.071810mm;fill:none" d="M34.819969,264.605164L45.061485,259.754913C43.334969,263.500397,39.20768,268.361725,35.850647,271.71875C32.850647,274.71875,28.965256,276.1922,27.773384,277.067078C27.081169,277.809387,26.693169,278.785034,26.686562,279.799988C26.62294,281.443176,26.603928,283.088165,26.629547,284.732483L26.627708,285.562683C26.648338,287.114441,27.05368,292.562744,27.394196,295.593323C25.317062,293.039429,17.62146,293.822632,15.719284,294.23468C15.932068,293.592773,18.563004,288.013794,18.8974,287.426025C19.673622,285.984619,20.507423,284.57489,21.396751,283.200409L21.5905,282.883118C22.185417,281.959625,22.687927,280.979797,23.090782,279.957764C23.359016,279.302917,23.455223,278.590088,23.369987,277.887573C23.230164,277.321716,22.95372,276.798767,22.56469,276.364685C21.237877,275.145172,17.356102,271.510162,14.719292,268.234711C11.670212,264.447174,7.769302,258.034729,6.719299,256.234741C9.055099,257.801636,12.364334,258.775452,14.872192,260.049042C15.805817,260.530396,16.782631,260.923218,17.789581,261.222229C17.812843,261.229675,17.836548,261.235626,17.860443,261.240662L17.786499,261.166412C16.24086,259.671051,14.581352,258.297974,12.822983,257.059692C12.491371,256.817444,12.171181,256.58429,11.838821,256.34314L11.356247,255.991531C10.143913,255.139313,8.916077,254.380768,7.895164,253.208649C6.026596,251.063339,4.646423,248.924438,3.719307,246.234756C2.799751,243.566986,1.874237,239.424927,1.723953,238.541794C2.637619,239.221222,6.216766,241.495956,8.810417,242.764374C10.566849,243.623367,13.23349,244.491776,14.014038,244.7966C11.684334,243.011505,8.510132,240.204742,6.390831,238.174225C5.167191,237.010925,3.084244,234.97467,2.014053,232.796631C0.65448,230.029633,-0.060417,224.371521,0.003708,224.220596C0.670815,224.910767,3.798271,227.655792,5.566917,229.029938C6.587906,229.823181,8.09771,230.609772,8.775192,230.861145C8.895805,230.888596,6.37915,227.752716,5.713722,226.77356L5.163422,225.949905C4.59301,225.112549,1.939629,219.633759,1.014061,213.796661C0.049805,207.715591,0.82502,201.271881,0.86779,200.616791C1.98896,202.119751,8.106262,208.115799,9.500328,209.369812C8.677383,207.333847,5.11055,200.801987,4.014053,195.796692C3.083519,191.548981,2.676567,187.669464,3.427902,183.386414C3.984352,180.214325,5.484764,177.752151,6.964493,174.891708C7.679878,173.508804,8.973969,171.688629,9.328583,171.123383L11.84343,178.852356C11.419998,175.03476,11.735756,170.065491,13.216812,166.5215C13.865913,164.973663,14.805893,163.564667,15.985771,162.370926C16.931923,161.478821,17.962463,160.680618,19.06282,159.987625C21.521393,158.427109,24.076469,157.024216,26.712738,155.787354C28.038536,155.148438,29.379585,154.541077,30.734276,153.965988C30.058601,157.893494,29.589745,161.853607,29.329659,165.830368C29.241127,167.078644,29.249115,168.331894,29.353584,169.578934C29.510574,170.737778,29.761131,171.882034,30.102791,173.000427C30.631432,174.749634,31.165001,176.489807,31.707939,178.235199L31.907967,178.92421C32.500641,180.867584,32.895409,182.865967,33.08622,184.888718C33.326477,187.350586,32.890472,189.832031,31.825386,192.064545L28.027054,197.947159C28.111496,198.000824,32.283768,195.066025,34.082802,193.00499C35.056747,191.889206,36.765747,189.601685,36.854523,189.408676C36.901489,189.306549,39.991699,201.03006,40.013992,207.796677C40.030609,212.841064,38.73774,218.128922,37.956619,222.456558C37.708832,223.941925,37.379089,225.412384,36.96888,226.861328L36.970474,226.860077L36.981354,226.844223L45.013985,217.796661C45.608437,220.301361,45.774124,225.666016,45.013985,229.796631C43.590477,237.532013,38.400963,245.740173,39.013992,247.7966L48.013977,235.796631C47.713974,238.346619,47.554398,247.37085,45.013985,252.796585C42.599144,257.954132,36.499077,262.833862,34.819969,264.605164z"/>
    <path transform="matrix(0.696286,0,0,-0.757659,198.81488,37.10939)" style="stroke:#0000ff;stroke-width:0.071810mm;fill:none" d="M25.014015,222.796661C24.475716,219.155792,23.393814,215.294495,22.752068,212.527252C22.407578,210.969193,22.175217,209.388458,22.056801,207.79715C21.76152,203.825348,21.646439,199.842468,21.711899,195.860229L21.801025,179.346588L21.535583,181.26593C21.076263,185.109894,20.717133,188.964172,20.458336,192.826859C20.168747,196.432327,19.999466,200.046112,19.950768,203.662933C19.884842,206.384827,20.037109,209.107727,20.406097,211.805298C20.85759,214.474945,23.206528,224.801727,23.486069,227.573914C23.705505,229.750061,23.960594,236.200439,23.949036,237.396454L23.955612,237.70462C24.002647,239.526596,24.053673,241.342789,24.109161,243.16394C24.194054,247.820007,24.324425,252.478912,24.499939,257.13269C24.536034,258.496887,24.624596,259.85907,24.765404,261.216431L25.079399,263.238586C25.165092,263.183655,25.418442,260.181549,25.449593,259.375488C25.623817,256.521912,25.725136,253.664566,25.753448,250.805786L25.78315,249.16539C25.809654,247.590408,25.835045,245.977234,25.858673,244.40094L25.908852,241.615448L25.919395,241.108093C25.96534,239.337784,25.996895,237.567535,26.014015,235.796631C25.864014,233.846649,25.681458,227.31102,25.014015,222.796661z"/>
    <circle transform="matrix(-0.801574,-0,0,-0.800628,214.547958,-182.408997)" style="stroke:#0000ff;stroke-width:0.062451mm;fill:none" r="1.836568" cx="0" cy="0"/>
    <circle transform="matrix(-1,0,0,-1,128.25116,-292.134155)" style="stroke:#0000ff;stroke-width:0.050000mm;fill:none" r="125.244347" cx="0" cy="0"/>
    <path transform="matrix(1,0,0,-1,-4.197174,-159.493942)" style="stroke:#0000ff;stroke-width:0.050000mm;fill:none" d="M113.007317,59.166992L112.870117,59.294434C112.33461,59.853523,112.177422,60.584023,111.927048,61.316593C111.517036,62.39489,110.873848,67.30484,110.746117,68.45137C110.697517,67.915382,110.189613,63.527527,110.238197,62.991535C110.293289,62.082676,110.405434,61.178082,110.573898,60.283283C110.615341,59.97118,110.722656,59.671215,110.888603,59.403645C110.939697,59.347271,110.996529,59.296356,111.058029,59.251545L112.513924,59.205322L113.014648,59.161377L113.007317,59.166992z"/>
    <path transform="matrix(1,0,0,-1,-4.197174,-159.493942)" style="stroke:#0000ff;stroke-width:0.050000mm;fill:none" d="M156.155762,40.892578L156.423584,40.912354C157.673981,41.083717,158.902725,41.386826,160.089355,41.81665C160.398209,41.948711,160.702591,42.091064,161.001953,42.243408L161.009705,43.195225L161.038574,46.736328C160.990936,47.902225,160.412079,48.982105,159.467529,49.667236C159.156952,49.905685,158.842773,50.139442,158.525146,50.368408L158.258789,50.575928C157.35611,51.244202,156.668228,52.161911,156.280029,53.21582C155.974991,54.026764,155.699615,54.84845,155.454346,55.679443L154.814209,57.819092C154.643188,58.414116,154.449585,59.002434,154.233887,59.582764C153.348999,59.717609,152.444778,59.637806,151.597168,59.350098C151.006531,59.097332,150.557953,58.596275,150.371582,57.981445C150.186874,57.313671,150.115906,56.61956,150.161621,55.928223C150.195953,55.115025,150.2388,54.301014,150.290039,53.48877L150.301514,53.068115C150.334869,52.238995,150.253204,51.409252,150.058838,50.602539L149.571533,46.827148L149.792236,46.66748C150.458694,46.120552,151.041397,45.478886,151.521729,44.762939C151.874954,44.238155,152.220566,43.70866,152.558838,43.174072C152.691513,42.979992,152.823334,42.78458,152.953613,42.588867L153.108643,42.381836C153.47612,41.904762,153.938431,41.509079,154.466553,41.219727C154.990616,40.96273,155.573639,40.849831,156.155762,40.892578z"/>
    <path transform="matrix(1,0,0,-1,-4.197174,-159.493942)" style="stroke:#0000ff;stroke-width:0.050000mm;fill:none" d="M147.205811,57.145508C147.041885,57.117722,146.878754,57.085602,146.716553,57.049072L146.514893,57.029541C146.204987,57.017529,145.899597,57.1045,145.642578,57.278076L145.497559,57.371582C145.120178,56.876816,144.840851,56.31448,144.674561,55.714844C144.223923,54.312321,144.059143,52.833778,144.189941,51.366455L144.178955,48.233154L144.630127,48.237061C145.535812,48.242996,146.438293,48.128792,147.313965,47.897461L147.205811,57.145508z"/>
    <path transform="matrix(1,0,0,-1,-4.197174,-159.493942)" style="stroke:#0000ff;stroke-width:0.050000mm;fill:none" d="M163.236816,42.865234C164.955353,43.194641,166.69632,43.393852,168.444824,43.461182C168.417801,45.287601,168.21077,47.106804,167.82666,48.892578C167.71669,49.328621,167.504059,49.731853,167.206299,50.068848C166.966003,50.325874,166.683655,50.540085,166.371338,50.702148L165.457275,51.264404C164.696838,51.75526,164.008911,52.350235,163.413574,53.031982L163.192627,53.243896C163.016312,53.408527,162.821899,53.552635,162.613037,53.67334L162.631104,53.307861C162.695374,52.636196,162.911423,51.987896,163.263184,51.412109C163.402786,51.170059,163.545105,50.929375,163.689941,50.69043L163.837646,50.370361C164.013428,49.966576,164.076309,49.522137,164.019287,49.085449C164.006256,48.883961,163.982452,48.683323,163.947998,48.484375C163.689774,46.602116,163.414688,44.720638,163.123291,42.843262L163.236816,42.865234z"/>
    <path transform="matrix(1,0,0,-1,-4.197174,-159.493942)" style="stroke:#0000ff;stroke-width:0.050000mm;fill:none" d="M181.455811,39.474365C200.178513,49.325897,215.497498,64.591293,225.414551,83.279297L224.784912,83.719727C223.674942,84.504333,222.57576,85.30574,221.489258,86.122559L221.123535,86.438965C219.917419,87.433716,218.678909,88.388702,217.410156,89.302246L217.304199,89.396973C217.17099,89.526871,217.077469,89.691833,217.032227,89.872314C217.001556,90.057022,216.974823,90.242355,216.952148,90.428223C217.778259,90.457016,218.603043,90.51384,219.425293,90.598633C220.169601,90.676132,220.905029,90.82296,221.62207,91.037109L222.72998,91.367676C223.240311,91.518188,223.753357,91.658981,224.269043,91.790039C224.000473,92.145706,223.650223,92.431488,223.248047,92.623535L222.866211,92.807129C220.742798,93.839676,218.796249,95.20192,217.098877,96.843262C216.305969,97.608856,215.540192,98.402313,214.803223,99.221924C214.218735,99.853302,213.674423,100.520866,213.173584,101.220459C212.987549,101.485229,212.848907,101.780182,212.763428,102.092293L212.759277,102.206047C213.009338,102.2827,213.269226,102.322647,213.530762,102.32373C213.989594,102.325363,214.448318,102.308456,214.905762,102.272949L215.401855,102.263672C216.277237,102.263206,217.137817,102.48909,217.900391,102.918953C218.285721,103.124474,218.668045,103.334846,219.047852,103.550293C218.992249,103.749542,218.918274,103.943192,218.827148,104.128906C218.669968,104.422729,218.448288,104.67717,218.178711,104.873047L217.63916,105.305183C216.949066,105.877563,216.283905,106.47934,215.645508,107.108887C213.839996,108.7276,212.120804,110.440224,210.495117,112.239502C210.058044,112.740189,209.637238,113.254852,209.233398,113.782707C210.42543,113.806831,211.613922,113.920731,212.788818,114.123543C213.507935,114.27713,214.205338,114.518867,214.865234,114.843262L215.94043,115.674316L215.056152,116.161133C212.263229,117.715714,209.732605,119.700317,207.557129,122.042236C206.373764,123.353371,205.378845,124.82296,204.601074,126.408691C205.793213,126.458908,206.967834,126.715782,208.072021,127.167969C208.371292,127.293297,208.66391,127.433937,208.94873,127.589363L208.560547,127.865723C207.794571,128.384354,207.021851,128.893036,206.242676,129.391602L205.64209,129.817383C204.591766,130.628296,203.643906,131.563873,202.819336,132.603516C200.946106,134.862106,199.476181,137.426666,198.474121,140.18457C197.786362,142.100845,197.224792,144.060135,196.792969,146.049805C196.513824,147.307465,196.24707,148.567596,195.992676,149.830566C195.850616,149.576874,195.718811,149.317535,195.597656,149.053223C195.487198,148.667435,195.401291,148.275055,195.340332,147.878418L194.142578,142.441895C193.304001,139.305832,191.987762,136.317627,190.23999,133.582031C188.817429,131.37886,186.999557,129.457504,184.878418,127.915283C184.347992,127.548439,183.809891,127.192596,183.264648,126.848137L183.088867,126.720947C182.919037,126.585297,182.76976,126.425743,182.645996,126.24707L182.95752,126.084961C183.663239,125.725304,184.417831,125.470963,185.197266,125.330078L185.981445,125.168457C186.301132,125.100258,186.619247,125.024887,186.935547,124.942383C186.381592,124.215607,185.823303,123.477943,185.274414,122.747559L184.486084,121.748779C183.661835,120.704651,182.782562,119.705093,181.852051,118.754387C180.829056,117.734123,179.713776,116.81073,178.520508,115.996094C178.05275,115.713379,177.577332,115.443581,177.094727,115.187012L175.527832,114.205566C177.04686,113.170662,178.835083,112.602013,180.672852,112.569344C181.170105,112.54818,181.667969,112.543282,182.165527,112.554688C181.496552,111.562073,180.740112,110.631271,179.905273,109.773438C179.085449,108.932632,178.248962,108.108032,177.396484,107.300293L172.527344,102.750977C172.899124,101.849373,173.737503,101.225998,174.708008,101.129883C175.422684,101.056793,176.141861,101.037971,176.859375,101.07373L177.332031,101.067383C177.828751,101.059143,178.323776,101.007423,178.811523,100.913094L178.751953,100.70752C178.544495,100.172867,178.243271,99.679588,177.862793,99.250488C176.059387,97.209351,174.0905,95.320717,171.976074,93.60376C171.009857,92.859665,169.961899,92.228233,168.852539,91.72168L168.493164,91.526855L168.301758,91.411133C166.940536,92.671814,165.673492,94.030502,164.510742,95.476318C164.289795,95.770409,164.104462,96.089607,163.958496,96.427246C163.93129,96.506485,163.919144,96.590111,163.922363,96.673828C164.147766,96.743507,164.382248,96.779404,164.618164,96.780273C165.032043,96.781914,165.44577,96.766602,165.858398,96.734375L166.305176,96.726074C167.094742,96.725517,167.871033,96.929199,168.558594,97.317383C168.905991,97.502609,169.25116,97.692291,169.59375,97.88623C169.543625,98.066002,169.476852,98.240707,169.394531,98.408203C169.252365,98.673035,169.052414,98.902466,168.80957,99.07959L168.322754,99.469238C166.29332,101.240273,164.34494,103.101738,162.483154,105.04834C161.872406,105.710602,161.291656,106.399918,160.742676,107.114258C161.817581,107.13588,162.889267,107.238457,163.94873,107.421143C164.597321,107.559433,165.226303,107.777443,165.821289,108.070313L166.791016,108.819817L165.994141,109.258789C163.210114,110.794296,160.724762,112.817421,158.65625,115.231934C157.835297,116.236778,157.133682,117.333473,156.56543,118.5C157.761871,118.551514,158.936829,118.835037,160.025146,119.334717L160.486328,119.564941C159.68483,120.124313,158.871094,120.666153,158.045898,121.189941L157.503906,121.574219C156.556732,122.305328,155.702026,123.148956,154.958496,124.086433C153.090866,126.338112,151.669159,128.924896,150.769287,131.708496C150.153259,133.547546,149.655426,135.424072,149.278809,137.32666C149.115921,138.09227,148.957779,138.854782,148.802734,139.62207C148.539551,139.234299,148.367569,138.791931,148.300293,138.328125L148.213867,137.861328L147.133789,132.958984C146.293518,129.784042,144.897385,126.783249,143.01001,124.095459C141.517792,122.025459,139.617493,120.282852,137.42627,118.975098C137.341293,118.908112,137.254425,118.843536,137.165771,118.781487L137.019287,118.6521C136.925613,118.561127,136.840973,118.461311,136.766602,118.353996L137.047363,118.208008C137.683762,117.883476,138.364365,117.654152,139.067383,117.527344L139.774414,117.381844C140.062714,117.320297,140.349548,117.252274,140.634766,117.177727C140.131348,116.517708,139.635315,115.862457,139.136719,115.19873L138.425781,114.298103C137.682709,113.356247,136.889709,112.454773,136.050293,111.597656C135.127762,110.67746,134.121979,109.844643,133.045898,109.109863C132.623932,108.855339,132.19519,108.612068,131.760254,108.380371L130.347168,107.495117C131.717041,106.562027,133.329605,106.04937,134.986816,106.02002C135.435272,106,135.884247,105.995598,136.333008,106.006844C135.512817,104.808739,134.566559,103.701988,133.510498,102.705566C132.720978,101.918121,131.915619,101.146873,131.094727,100.39209C130.813934,100.616577,130.536438,100.845543,130.262695,101.078613L130.072266,101.231453C129.422714,101.736511,128.765701,102.23204,128.101563,102.717773L128.027832,102.78418C127.907921,102.908737,127.834167,103.070503,127.818359,103.242683L127.782227,103.502441C128.104858,103.519173,128.42691,103.533478,128.749756,103.54541L129.195557,103.581047C130.0858,103.669907,130.962494,103.863136,131.807617,104.156738L132.120605,104.247559C132.372925,104.318329,132.626038,104.3862,132.879883,104.451172C132.693939,104.69989,132.449738,104.899094,132.168945,105.031738L131.797363,105.210938C130.039749,106.098251,128.456223,107.294746,127.122559,108.743156C126.337784,109.502502,125.631432,110.338928,125.01416,111.239754C124.925827,111.380867,124.87339,111.541428,124.861816,111.70752C124.998466,111.743469,125.137871,111.768082,125.278557,111.78125C125.739998,111.794281,126.201843,111.781647,126.661873,111.743408L126.965332,111.75708C127.572548,111.808388,128.158768,112.003807,128.675293,112.327148L129.079102,112.553711L129.242676,112.643547C129.156815,113.013046,128.942337,113.340042,128.637207,113.56543L128.26123,113.866699C126.509743,115.377548,124.848419,116.989708,123.285637,118.695068C122.981453,119.04525,122.687828,119.404572,122.405273,119.772461C123.235657,119.789902,124.063568,119.869377,124.88208,120.010246C125.382874,120.117691,125.868637,120.285957,126.328613,120.51123L127.077637,121.090332L126.461906,121.429199C124.15638,122.692963,122.122421,124.398262,120.47583,126.447998C119.97345,127.109596,119.538742,127.819939,119.178223,128.568359C120.098343,128.604462,121.002289,128.821701,121.838379,129.20752L122.207031,129.391113L121.272461,130.031006L120.321777,130.646484C119.411484,131.272446,118.602119,132.033768,117.921631,132.904053C116.448479,134.692871,115.331741,136.747421,114.631844,138.956543C114.03476,140.903442,113.550423,142.883087,113.181152,144.885742C112.977837,144.586212,112.845047,144.244476,112.792969,143.88623L112.726563,143.525391L111.89209,139.738281C111.21077,137.142487,110.041351,134.700256,108.446289,132.541992C107.316887,131.075333,105.918892,129.836655,104.326897,128.89209L104.166023,128.760254C104.062622,128.667435,103.967857,128.56543,103.882813,128.455566L104.099609,128.342773C104.591469,128.092575,105.117188,127.915421,105.660156,127.816887L106.206543,127.70459C106.429291,127.657242,106.650841,127.604691,106.871094,127.546883C106.456207,127.002724,106.047997,126.46344,105.636963,125.916496L105.00415,125.124512C104.222153,124.133301,103.35231,123.214607,102.405273,122.379639C101.960037,121.998772,101.49382,121.643173,101.008789,121.314453C100.682991,121.117554,100.351791,120.929626,100.015633,120.750977L98.923828,120.066887C99.982971,119.347679,101.228279,118.951714,102.508301,118.927254C102.854767,118.912117,103.201637,118.908707,103.54834,118.916992C103.081917,118.225616,102.554764,117.577217,101.973137,116.979492C101.402344,116.393547,100.819817,115.819008,100.226067,115.256348L96.833496,112.087402C97.09201,111.458992,97.676323,111.024773,98.352539,110.958008C98.960785,110.912483,99.57093,110.897789,100.180656,110.914063L100.518066,110.897949C100.750847,110.881943,100.982422,110.851433,101.211433,110.806641L101.11377,110.518547C100.840782,109.99543,100.487579,109.518257,100.066887,109.104492C98.960663,107.904633,97.769409,106.786003,96.502441,105.757317C95.816063,105.218773,95.067764,104.764183,94.273438,104.40332L94.022949,104.267578C93.733742,104.10257,93.459885,103.912003,93.20459,103.698242L93.535645,103.479492C94.22113,103.08577,94.987946,102.854889,95.776855,102.804688L96.999512,102.70752C97.400612,102.674759,97.796524,102.595284,98.179199,102.470703L98.106445,102.313957C97.833542,101.917213,97.506874,101.560257,97.135742,101.253418C96.176819,100.433563,95.173843,99.666626,94.131348,98.956055C91.938522,97.433105,89.689751,95.992935,87.38916,94.638184C86.155151,93.983322,84.913528,93.344681,83.663086,92.72168C83.591316,92.666443,83.515915,92.616112,83.4375,92.570801C83.386497,92.489914,83.33004,92.412598,83.268555,92.339355L83.49707,92.215332C83.978928,91.894165,84.435951,91.537186,84.864258,91.147461L85.284912,90.862305C85.853043,90.531044,86.468399,90.288147,87.109619,90.14209C88.114586,89.866386,89.148804,89.711334,90.19043,89.680176L91.446777,89.375977C91.165688,89.074623,90.837723,88.820702,90.475586,88.624023C88.454002,87.490921,86.35421,86.503387,84.192139,85.668945C83.408218,85.353912,82.620651,85.047897,81.82959,84.750977C80.948822,85.01075,80.102798,85.376366,79.310059,85.839844L76.904297,87.281738L76.562988,87.523438C75.389229,88.302238,74.199356,89.05587,72.993652,89.78418L72.870117,89.916992C72.739929,90.11116,72.668472,90.339012,72.664551,90.572754C73.095306,90.590263,73.527618,90.606102,73.958496,90.620117L74.552734,90.659668C75.740555,90.757744,76.91629,90.968979,78.063965,91.290527L78.483887,91.389648C78.822357,91.468414,79.162102,91.543007,79.502441,91.613281C79.237083,91.895569,78.910736,92.113487,78.54834,92.250488L78.050781,92.446777C75.756783,93.37587,73.636398,94.686165,71.779297,96.322266C70.786743,97.113823,69.866928,97.99247,69.030762,98.947754C68.880722,99.126923,68.782486,99.343376,68.746094,99.574219L69.025146,99.624756C69.305809,99.665627,69.589912,99.677826,69.873047,99.661133L70.752441,99.625488C71.690468,99.563583,72.630013,99.721062,73.496582,100.085449L74.404297,100.50293L74.623047,100.601563C74.491753,101.030128,74.201134,101.392036,73.811035,101.612793L73.306641,101.943359C71.223389,103.429207,69.206055,105.004997,67.26001,106.666496C66.630424,107.223877,66.026848,107.809937,65.451172,108.422852C66.560577,108.441612,67.667763,108.528191,68.766602,108.682129C69.433029,108.798683,70.085701,108.983414,70.714355,109.233398L71.719238,109.868156L70.893066,110.240227C68.357544,111.384171,66.00264,112.89196,63.902588,114.716057C62.817543,115.693901,61.880886,116.824669,61.12207,118.072746C62.521698,118.111023,63.901268,118.417381,65.185547,118.975098L64.822266,119.186523C64.105049,119.583527,63.382561,119.972473,62.65625,120.352539L62.094727,120.678223C60.993652,121.374878,59.987091,122.210854,59.100098,123.165283C57.339195,124.977699,55.953766,127.120216,55.023438,129.469727C54.503925,130.819061,54.054516,132.194351,53.677002,133.590088L53.077637,135.974609C52.810074,135.65773,52.629818,135.27652,52.554688,134.868652L52.467773,134.482422L51.348633,130.327148C50.382874,127.372543,48.786957,124.662987,46.671143,122.385742C45.129295,120.765961,43.305138,119.44075,41.288086,118.475098C41.201153,118.418983,41.112663,118.365334,41.022705,118.314209L40.872314,118.205811C40.775234,118.128822,40.685581,118.0429,40.604492,117.949219L40.895508,117.825203C41.566589,117.546623,42.269753,117.352753,42.98877,117.248047L43.72168,117.125C44.019989,117.073059,44.317253,117.015259,44.613281,116.95166C44.090622,116.391312,43.574356,115.833603,43.055908,115.269287L42.317383,114.50415C41.397118,113.538857,40.406925,112.642578,39.35498,111.822746C38.529518,111.189957,37.658501,110.618912,36.749023,110.114258C36.30978,109.897812,35.865456,109.691681,35.416504,109.496094L33.952637,108.745613C35.4296,107.943901,37.079849,107.514664,38.760254,107.495117C39.225243,107.478996,39.690582,107.475273,40.155762,107.483887C39.517738,106.712486,38.810535,106.001038,38.042969,105.358398C37.273754,104.713348,36.492077,104.082932,35.69873,103.467773L32.123779,100.736328C39.040154,79.06337,52.778069,60.207344,71.288086,46.981201L71.708008,47.401855C73.651848,49.21653,75.838943,50.751617,78.206299,51.962891C80.934357,53.420013,83.784775,54.635437,86.724854,55.595215L85.340332,59.699219L85.215576,59.863281C85.03241,60.272419,84.911514,60.706676,84.856934,61.151611L84.856934,62.100098L84.883545,62.163574C84.975151,62.391773,85.05349,62.625065,85.118164,62.862305L85.192627,63.053955C85.353844,63.388474,85.54921,63.705441,85.775635,63.999756L86.001221,64.340576C86.245148,64.72541,86.394814,65.162384,86.437988,65.615967L86.595703,68.655029C86.834023,70.241264,87.379288,71.765938,88.200928,73.143555C88.538528,73.746109,88.903419,74.332993,89.294434,74.902344L89.302002,74.969727L89.20459,74.990234C89.129738,75.016968,89.066231,75.06839,89.024414,75.135986C89.172211,75.148712,89.318504,75.175125,89.461426,75.214844L89.49585,75.248779L89.490967,75.266357C89.477257,75.312904,89.485443,75.363007,89.511719,75.403809L89.878418,75.498535C89.893463,75.540199,89.880684,75.586403,89.848145,75.616455L89.804199,75.624756L89.770508,75.641846L89.902588,75.741943L90.039551,75.834961L89.725342,76.002197L90.23291,76.121094L90.087891,76.233643L90.999023,77.006348L91.058105,77.075439C91.772446,77.832481,92.517349,78.560043,93.291016,79.256348L95.33667,81.14502C96.460121,82.170013,97.532356,83.249916,98.549316,84.380615C98.892952,84.761047,99.199402,85.173676,99.464355,85.612549L99.560547,85.791016C99.393951,85.842461,99.223808,85.881699,99.051514,85.908447L98.906006,85.951416C98.76619,86.011734,98.653053,86.120789,98.587646,86.258301L99.473877,86.52832L98.66626,87.005615L99.574707,87.543457L98.873779,87.859619L100.195068,88.943115L99.671387,88.951172L100.092293,89.201172L99.308838,89.624023L99.951172,89.962402L99.395508,90.167725L99.892822,90.365234L99.288574,90.816406L100.247307,91.229248L99.508057,91.644287L100.809334,92.343018L100.594971,92.429688L100.470703,92.516602L100.451897,92.549316C100.452438,92.591057,100.476082,92.628578,100.511963,92.649902C100.639992,92.735481,100.769028,92.819962,100.898682,92.903076L101.116943,93.05542C101.330788,93.213966,101.530434,93.390831,101.713623,93.583984L100.986572,93.730957L102.070313,94.66333L101.522217,94.81665L101.5354,94.842529C101.766449,95.09272,102.010971,95.330093,102.267822,95.553711L102.583252,95.892578C103.233727,96.605171,103.698807,97.466942,103.937263,98.401855C102.92765,98.359138,101.916267,98.391205,100.911377,98.497803C100.523537,98.55394,100.145569,98.664543,99.788574,98.826172C99.535385,98.948784,99.416801,99.243172,99.514893,99.506836C99.574768,99.682411,99.678535,99.839752,99.816406,99.963867C100.238007,100.379501,100.707047,100.744057,101.213867,101.050049L101.767578,101.445801C102.317108,101.847488,102.85376,102.266472,103.376709,102.702148C103.642548,102.997993,103.838768,103.349609,103.950928,103.731201C104.131737,104.31414,104.303726,104.899292,104.467041,105.487297L104.658447,106.006592C104.923477,106.762329,105.357002,107.44767,105.92627,108.010986C106.316437,108.338173,106.747551,108.613274,107.20874,108.829102L107.481201,109.01123C107.864693,109.288567,108.181221,109.648277,108.407471,110.063957C108.981789,111.232491,109.533577,112.41169,110.062737,113.601318L110.287842,114.0271C110.476608,114.40081,110.70929,114.750763,110.980957,115.069344C111.04763,115.139397,111.120399,115.203423,111.198486,115.260498L111.706047,115.260498L111.775627,115.202148C111.953079,115.058472,112.131592,114.916786,112.311768,114.776611L112.409912,114.692871C112.732193,114.40155,112.941628,114.006012,113.001221,113.575684C113.085159,113.099358,113.110359,112.614532,113.076172,112.13208L113.066887,111.241699C113.06134,110.929176,113.103027,110.617729,113.19043,110.317627L113.351067,110.5C113.600441,110.824989,113.798317,111.186523,113.9375,111.571777L114.139648,112.026611L114.197273,112.147461L114.256348,112.288818C114.329803,112.423683,114.441353,112.533989,114.577393,112.605217C114.74308,112.638229,114.911583,112.5634,114.998779,112.418701C115.483833,111.760948,115.691116,110.93898,115.575928,110.129883C115.504738,109.473282,115.375221,108.824333,115.188957,108.190666L114.979492,107.37793C114.47628,105.377258,114.608467,103.269318,115.357674,101.347168C115.689178,100.460068,116.133926,99.619514,116.680908,98.846436C116.872864,98.622292,117.069847,98.402496,117.271729,98.187256L117.439697,97.988281C117.639221,97.775795,117.730148,97.483437,117.686043,97.195313L116.795898,97.404785L116.932129,97.096924C117.086502,96.797348,117.291962,96.527,117.539307,96.298096C117.663879,96.1492,117.804787,96.014763,117.959473,95.897461L118.018799,95.832764C118.063232,95.780914,118.094673,95.71907,118.109131,95.652344L118.017822,95.604736C117.798347,95.546974,117.56588,95.566437,117.359619,95.661133L117.013428,95.793457C117.245621,95.233963,117.490021,94.679474,117.746338,94.130615L117.947746,93.600098C118.246323,92.712234,118.402184,91.782639,118.409416,90.845947C118.404907,90.749931,118.383827,90.655403,118.346916,90.56665L117.949951,90.913086L117.952148,90.852051C118.005997,90.328484,118.07193,89.80616,118.149902,89.285645L118.207031,88.619385C118.220047,88.466171,118.188141,88.312645,118.115723,88.177002L118.088867,88.155518L117.575439,89.065918L117.57373,88.807861C117.595657,87.855232,117.927841,86.936218,118.52002,86.189697C118.630669,86.048378,118.769096,85.931252,118.926758,85.845459L118.926758,85.696289L117.891602,85.764893C117.989357,85.46257,118.184677,85.201225,118.447021,85.021973L118.624268,84.878906C118.727821,84.81588,118.811813,84.724907,118.866463,84.616699L118.77417,84.603516L118.603523,84.587402C118.526604,84.573921,118.45488,84.539879,118.39502,84.489746L118.588623,84.262207L117.649902,84.42749L118.425293,82.652832L117.41626,82.916748L117.885498,82.42334L117.20874,82.596436L118.020508,81.019531L117.228996,81.017334L117.726318,80.550049L117.027588,80.723389L117.158203,80.173584C117.203812,79.902466,117.15992,79.623993,117.033447,79.379883L116.773682,80.147217L116.765137,80.081543C116.73848,79.835907,116.715027,79.589767,116.694817,79.343506L116.645508,78.869385C116.601059,78.552696,116.489166,78.249313,116.317139,77.979736C116.265587,77.919838,116.201729,77.871727,116.129639,77.839355L115.976807,77.407715C115.911583,77.227043,115.860077,77.041695,115.822746,76.853271L115.829102,76.783447L115.381844,77.009277C115.395554,76.753357,115.565857,76.532707,115.809334,76.452637L116.01416,76.392334C116.066177,76.364731,116.111504,76.325684,116.143311,76.276123L115.679932,76.193359L116.068848,75.564941L115.629639,75.651611L116.04248,75.087646L115.20874,75.434082C115.20961,75.110817,115.338043,74.801048,115.56543,74.571289C115.623207,74.492149,115.689034,74.41922,115.761719,74.353516L115.812012,74.271484C115.853561,74.200157,115.861732,74.113739,115.833008,74.036377L114.876457,74.479248C114.985336,73.948082,115.22567,73.452675,115.575684,73.038574L115.752693,72.799072C115.804787,72.73793,115.844337,72.667023,115.867432,72.590088L114.705078,72.787354L115.321533,71.85083L114.614502,71.85498L115.23291,71.292969L114.28833,71.355469C114.371429,70.936958,114.629143,70.573814,114.996582,70.356934L115.084961,70.271484L115.14624,70.165039L114.171387,70.195068L114.652832,69.466064L113.599373,69.711914C113.611198,67.78743,113.736816,65.865463,113.975594,63.955811C114.007584,63.640106,114.077904,63.329288,114.184807,63.030518C114.254807,62.798489,114.384972,62.588623,114.561768,62.422852C114.669823,62.327129,114.7966,62.254929,114.934082,62.210938C115.180527,62.144966,115.428123,62.083351,115.676758,62.026123L116.003662,61.93457C116.577469,61.773132,117.081734,61.426693,117.438232,60.948975C117.768173,60.49321,117.908737,59.927525,117.830322,59.370361C117.743057,59.076035,117.48349,58.865993,117.17749,58.841309L120.275879,57.914551C121.379097,57.488708,122.288223,56.673649,122.831543,55.623291C123.302353,54.808987,123.681007,53.944775,123.960449,53.046631C124.450607,51.456924,124.897324,49.854034,125.300049,48.23999C125.411102,47.856487,125.519699,47.474422,125.626953,47.089844L125.776863,46.620361C126.114517,45.590469,126.585381,44.609215,127.17749,43.701416C127.633438,43.079079,128.241592,42.584568,128.943848,42.265137C129.652954,41.981968,130.425674,41.895996,131.179688,42.016357C132.169861,42.146095,133.112534,42.519611,133.922852,43.103271C134.694153,43.613174,135.423904,44.1833,136.105225,44.80835L136.980469,45.562256C137.872742,46.320095,138.844315,46.979393,139.878174,47.528564C140.217499,47.775551,140.591736,47.970665,140.988525,48.107422L141.250732,48.169434L141.56665,48.876953L141.791016,53.090332L141.888428,54.195068C142.126587,56.767929,141.852951,59.362305,141.083252,61.828857L141.037842,61.844482C141.019302,61.73275,141.004944,61.620358,140.994629,61.507568L140.925293,61.258789C140.874756,61.09473,140.721924,60.983547,140.550293,60.987305C140.502731,61.09893,140.458694,61.212029,140.418213,61.326416L140.332764,61.510742C140.271042,61.631577,140.200409,61.74765,140.121338,61.85791C140.06517,61.913292,139.979263,61.925678,139.9104,61.887207L139.863037,61.858887C139.721817,61.82589,139.574188,61.843662,139.44458,61.908691C139.180817,62.017357,138.962326,62.213326,138.825928,62.463867L138.798584,62.576416L138.621689,63.536835L138.298965,63.067154L138.433975,64.294418L138.036972,63.951416L138.071991,65.2202C137.958023,65.265579,137.971664,64.861717,137.847061,64.845146C137.79158,64.837769,137.697998,65.628731,137.604004,65.616943L137.533798,65.331543C137.40416,65.420685,137.292557,65.83223,137.258545,65.98584C136.991165,66.689598,136.941757,65.943977,136.637955,67.28392C136.504318,67.873375,136.406067,68.352997,136.377441,68.572006L135.969498,68.315147L136.468094,70.007385L135.712631,69.64476L136.090363,71.291679L135.380234,70.91394L135.779785,72.788574L135.381592,72.404541L135.746338,73.776123L135.326416,73.578857L135.770996,74.702393C135.552292,74.62471,135.33754,74.536377,135.127441,74.437744L135.109619,74.440674L135.099854,74.463623C135.103989,74.560287,135.118469,74.656242,135.143311,74.749756C135.268311,75.296066,135.397491,75.840958,135.531006,76.385254L135.604248,76.812744C135.643555,77.099388,135.663132,77.388405,135.662842,77.677734C135.658539,77.841164,135.593643,77.997063,135.481445,78.115967L135.460449,78.175049C135.476089,78.407753,135.537735,78.635048,135.641846,78.84375C135.725586,79.051109,135.811371,79.257339,135.899414,79.462891L135.970947,79.64917C135.999344,79.707634,136.013687,79.771912,136.013428,79.836914L135.987061,79.851807C135.94313,79.829407,135.904663,79.797798,135.873291,79.759766L135.831299,79.726074L135.801514,79.712891L135.787598,79.723633C135.844086,80.067383,135.948807,80.401443,136.098877,80.71582L136.208252,81.040771C136.485458,81.970497,136.546616,82.951263,136.386963,83.908203C136.217163,85.002647,135.997543,86.088676,135.72876,87.163086L135.647705,87.667725C135.537659,88.258438,135.54361,88.864937,135.665283,89.453369C135.751129,89.773415,135.895416,90.074844,136.091064,90.342285L136.923584,89.147461L137.803467,92.861328C138.447342,92.841545,139.035934,92.492439,139.361816,91.936768C139.556702,91.618958,139.727982,91.287247,139.874268,90.944336C140.042847,90.539688,140.203568,90.13163,140.356201,89.720703L140.478027,89.441406C140.868515,88.553497,141.502136,87.794052,142.305664,87.250732L142.648193,86.979492C143.405914,86.252197,143.926819,85.313423,144.143066,84.285645L144.288574,84.010498C144.452408,83.745605,144.66777,83.516304,144.921875,83.336182C145.40213,82.979874,145.88765,82.631134,146.378662,82.289795L146.749512,81.988037C146.958115,81.786758,147.113327,81.536736,147.201172,81.260498C147.2276,81.060928,147.129761,80.865242,146.953857,80.767334C146.42009,80.510361,145.832962,80.383713,145.240723,80.397705L144.999023,80.379883C145.520905,79.378174,146.13942,78.429779,146.845703,77.54834L146.935791,77.47583L147.403564,77.196777C148.624771,76.43882,149.749161,75.535049,150.751953,74.505371L151.203857,74.081787C152.198639,73.160728,153.380249,72.464905,154.668213,72.041748C156.271286,71.518089,157.912827,71.120644,159.577881,70.853027L160.203613,70.730225C161.658051,70.41671,163.06636,69.91835,164.394287,69.247314C165.788116,68.494339,167.002502,67.448692,167.954102,66.182129C168.33667,65.687683,168.715332,65.188744,169.088623,64.687256L169.615234,64.007324C170.827896,62.496689,172.402588,61.316933,174.193115,60.577637C174.208771,60.449429,174.124115,60.330509,173.998291,60.30127C173.741013,60.229404,173.478714,60.176891,173.213623,60.144043L173.179688,60.130859L173.153076,60.106689L173.152832,60.081543L173.166016,60.062012L173.202148,60.031982C173.786102,59.770363,173.71991,59.862724,174.336548,59.691879L175.348877,59.737206L174.744492,59.4048L176.300751,59.41991L175.860107,59.08374C176.848724,58.699078,177.808334,58.243614,178.731445,57.720947L179.200684,57.497314C180.3078,57.000626,181.488647,56.688263,182.696533,56.57251C183.347733,56.493259,184.001251,56.435448,184.65625,56.39917L184.265381,55.868652C184.497437,55.849285,184.72995,55.832836,184.962402,55.819336L185.287354,55.772949C185.591034,55.74263,185.884155,55.645229,186.145752,55.488037C186.329559,55.324455,186.378128,55.056316,186.263428,54.838623C186.212646,54.7229,186.133591,54.621761,186.033447,54.544678C184.881699,53.664478,183.610123,52.953178,182.257324,52.432373L183.458984,52.056641C183.34787,51.816925,183.147842,51.629841,182.901367,51.534668C182.394913,51.320187,181.861603,51.175697,181.316162,51.10498L180.741943,51.006104C180.439484,50.95636,180.14476,50.867912,179.86499,50.742676L179.835449,50.694092C179.873367,50.599979,179.919388,50.509327,179.973633,50.423584L179.999756,50.335693C180.020432,50.210423,180.007141,50.081886,179.960938,49.963623L179.710205,50.039063C179.254486,50.226826,178.804565,50.428417,178.361084,50.643555L178.21167,50.691895C178.023361,50.74897,177.828476,50.781555,177.631836,50.788818L177.612793,50.763184C177.626129,50.72345,177.6492,50.687607,177.680664,50.659912L177.708984,50.611084L177.723145,50.568115C177.726089,50.538418,177.717026,50.509083,177.699951,50.484619C177.464523,50.333118,177.190353,50.253605,176.9104,50.255371C176.422897,50.703316,175.941406,51.15731,175.465576,51.617676L175.389404,51.67627L175.340088,51.696045C175.285828,51.699932,175.237976,51.664799,175.218018,51.614258L175.1521,51.536865C174.991913,51.385586,174.795959,51.27758,174.58252,51.2229L174.2146,51.712158L173.737793,52.30957C173.632233,52.443253,173.528381,52.578255,173.42627,52.7146L173.289795,52.873291L173.311768,52.820801C173.326721,52.792229,173.322464,52.758881,173.309326,52.729248C173.271378,52.70779,173.225998,52.702652,173.185059,52.717529C172.70076,52.897095,172.293579,53.238773,172.032715,53.68457C171.741867,54.158592,171.502151,54.662136,171.317627,55.186768L171.081299,55.798096C170.857483,56.414917,170.527405,56.987789,170.105957,57.490723L170.047607,57.528564L170.011963,57.515137C170.004669,57.345467,170.000916,57.175682,170.000732,57.005859L169.990234,56.90918C169.969528,56.812977,169.905701,56.731678,169.817871,56.687256L167.419434,60.778076C167.621033,59.422092,167.936203,58.085438,168.361572,56.782227C168.466278,56.519485,168.57254,56.256775,168.679932,55.995117L168.841064,55.534912C168.940735,55.22538,169.02478,54.911011,169.092773,54.593018C169.103729,54.479027,169.106842,54.364414,169.102051,54.25L169.124023,54.204346C169.254852,54.032898,169.3983,53.87146,169.553223,53.721436L169.791992,53.451416C170.034485,53.09576,170.195938,52.691216,170.265137,52.266357C170.499466,51.103207,170.652344,49.925152,170.722656,48.740723C170.787933,47.939865,170.850739,47.133942,170.9104,46.33252L171.020752,45.02417C171.073639,44.480705,171.146103,43.939358,171.238037,43.401123L171.513916,43.380615C174.863281,43.148933,178.043259,41.82003,180.561523,39.599609L180.796387,39.420898L181.044189,39.260498L181.455811,39.474365z"/>
    <circle transform="matrix(1,0,0,-1,141.522476,-375.213623)" style="stroke:#0000ff;stroke-width:0.050000mm;fill:none" r="15.952835" cx="0" cy="0"/>
    <path transform="matrix(1,0,0,-1,-4.197174,-159.493942)" style="stroke:#0000ff;stroke-width:0.050000mm;fill:none" d="M174.907471,145.272217L175.713135,145.311279C176.71434,145.349106,177.70816,145.499893,178.675537,145.760742C180.035126,146.128586,181.241104,146.923477,182.11499,148.028076C182.726486,148.775696,183.270142,149.576279,183.739502,150.42041C184.348145,151.517303,184.930023,152.628769,185.484619,153.753906L185.91748,154.582031C186.638733,155.945114,187.486053,157.237717,188.448242,158.442871L189.300781,159.530518C190.001892,160.421692,190.686096,161.326508,191.352539,162.243896L191.657715,162.638184C192.378647,163.552704,193.198151,164.38501,194.101318,165.120117L194.197266,163.849365C194.416016,161.461136,194.358246,159.055405,194.025146,156.68042C193.868927,155.560074,193.693878,154.441757,193.500244,153.327148C194.23996,154.821838,194.878204,156.36467,195.410645,157.945068C196.003326,159.766006,196.452499,161.630646,196.753906,163.521729C196.859756,164.419922,196.905853,165.324219,196.891846,166.228516L196.918457,166.684082C196.979553,167.55957,197.273697,168.402832,197.770264,169.126465C198.023804,169.510834,198.298553,169.880829,198.593262,170.234619C199.237427,170.987488,199.887421,171.733582,200.544922,172.474854L200.93457,172.937988C202.044098,174.292038,203.040588,175.734879,203.914063,177.251953L204.501465,178.254395C204.882675,178.91539,205.282227,179.565628,205.699707,180.204346L206.20166,179.675781C207.320831,178.387604,208.251785,176.94751,208.967041,175.398193C209.508118,174.27623,209.986374,173.125,210.399658,171.949951L210.924561,170.510254C211.823486,168.019302,212.833893,165.569885,213.952637,163.169678C214.576004,161.829941,215.345291,160.563034,216.246582,159.39209C217.007813,158.388138,217.978531,157.561768,219.091064,156.970459C219.840302,156.592758,220.656616,156.366272,221.493408,156.304688C219.907928,157.846985,218.560486,159.616379,217.495361,161.554932C216.434677,163.619461,215.779037,165.867401,215.563721,168.178467C215.539703,168.524216,215.535995,168.871078,215.552246,169.217285L216.530029,168.816162C218.652069,167.978287,220.637131,166.827698,222.418945,165.402832C223.981018,164.156525,225.497131,162.853775,226.964355,161.49707L227.547852,160.979736C229.027588,159.66449,230.609146,158.468307,232.277588,157.402588L233.151123,156.819092C234.527069,155.907242,235.86969,154.945969,237.17627,153.937256C235.135849,156.801605,233.044113,159.629303,230.902344,162.418701C229.509796,164.250092,228.03624,166.018463,226.486084,167.718506C225.129883,169.227356,223.642807,170.61322,222.042236,171.859863C220.69812,172.914154,219.165314,173.702576,217.525879,174.182617C216.422241,174.472977,215.300858,174.691483,214.168945,174.83667L213.790283,175.011719C213.054886,175.320953,212.423264,175.834641,211.970459,176.491455C211.736008,176.82489,211.523331,177.173096,211.33374,177.533936C210.950256,178.294098,210.555969,179.078888,210.175049,179.840576L209.757324,180.579834C208.9133,181.941467,207.940186,183.218704,206.851318,184.393799C206.143265,185.17868,205.431931,185.958862,204.715576,186.736328C203.511292,184.065765,202.104385,181.491089,200.507324,179.035156C197.858765,174.73938,194.927139,170.624451,191.732178,166.718018L190.142578,164.739746C188.559174,162.771713,187.135269,160.680389,185.884521,158.48584L185.635986,158.082764L185.372803,157.664795C184.28952,158.140533,183.252777,158.716187,182.276123,159.384033C180.896942,160.341156,179.754822,161.601151,178.937256,163.067383C178.300812,164.211655,177.702026,165.376694,177.14209,166.560303L176.69043,167.435059C175.727722,169.214951,174.534241,170.85997,173.140869,172.327393C171.648148,173.912643,170.097382,175.442383,168.491943,176.91333C167.917328,176.454071,167.377182,175.953201,166.875977,175.414795C166.303879,174.764389,165.832443,174.031876,165.477539,173.241699C165.04303,172.27298,164.617889,171.302399,164.200439,170.326172L163.694092,169.2146C163.064407,167.798508,162.271164,166.460968,161.330566,165.229248C160.622574,164.3022,159.712982,163.548065,158.670898,163.023926C157.231873,162.302567,155.529053,162.334991,154.118652,163.11084C153.584732,163.401245,153.075272,163.734406,152.595215,164.107178L152.306641,163.539063C151.456665,161.963959,150.510941,160.442383,149.474854,158.98291L148.356445,157.380615C147.914627,156.745377,147.500748,156.091217,147.115967,155.419922L146.832031,154.969971C146.617218,154.636093,146.399872,154.303772,146.180054,153.973145L145.720459,154.313477C144.508423,155.204346,143.350327,156.166534,142.252441,157.194824C139.660675,159.680054,137.47406,162.555786,135.771973,165.717529C134.644562,167.817383,133.601318,169.96167,132.64502,172.144775C131.069656,172.443481,129.530502,172.908722,128.053467,173.532715C126.774368,174.125122,125.58828,174.900482,124.532471,175.834473C121.616913,178.270599,119.137962,181.18573,117.201897,184.454834C116.863388,185.01535,116.533974,185.581696,116.214111,186.153076L115.970703,186.108643C115.121536,185.958069,114.346046,185.530701,113.765381,184.893066C113.421371,184.5224,113.081451,184.147842,112.74585,183.769531L112.501457,183.519287C111.809273,182.782257,110.843384,182.363831,109.832283,182.362549C109.231583,182.441376,108.709808,182.814636,108.440666,183.357422C108.051483,184.069199,107.744377,184.822876,107.525391,185.604004C107.316589,186.276917,107.114029,186.950867,106.917236,187.627441L106.669189,188.360107C106.250328,189.573303,105.64814,190.715225,104.883537,191.746094C104.179962,189.903442,103.344803,188.113739,102.384521,186.390869C101.863861,185.52092,101.212914,184.735901,100.454353,184.063232C98.896469,189.640366,96.662003,195.005936,93.800781,200.040283C92.573257,202.149689,91.118736,204.118469,89.463135,205.911621L88.978027,206.405518C86.853294,204.564941,84.908302,202.526672,83.169189,200.318115C81.479988,198.109604,80.002602,195.746857,78.756592,193.26123C78.27179,192.30304,77.799042,191.339493,77.337891,190.369629L76.850586,189.413818C76.375702,188.494827,75.860275,187.59726,75.305908,186.723877C74.786674,185.934708,74.187668,185.201035,73.518311,184.534424L73.252441,184.314209C72.080856,185.470001,71.041817,186.752823,70.154541,188.138916L69.165527,189.684326C67.829422,191.900635,65.980049,193.763412,63.773438,195.115479C63.218613,195.452942,62.635838,195.742096,62.031494,195.979736C61.785286,196.067764,61.533516,196.139374,61.277832,196.194092L60.256592,194.047119C57.170593,187.493927,53.753723,181.102234,50.018799,174.895996C48.316128,172.121216,46.352543,169.515244,44.154785,167.113525C43.29591,167.358856,42.472713,167.715225,41.706055,168.173584C41.095219,168.580078,40.549419,169.076675,40.087158,169.646484C39.677834,170.140579,39.285774,170.648682,38.911621,171.169922C38.437729,169.619812,37.98848,168.063431,37.563477,166.499268L37.24585,165.465088C36.297264,162.2099,34.672493,159.191391,32.477783,156.606934C31.057003,154.966202,29.357323,153.589844,27.457031,152.54126C27.051964,152.315231,30.481541,153.597183,32.033936,155.285156C33.946606,157.241989,35.500366,159.519821,36.624268,162.014648C36.977474,162.783997,37.321239,163.558594,37.654785,164.33667L38.227783,165.517334C38.605415,166.280014,39.125328,166.963486,39.759521,167.531006C40.349495,167.285614,40.882626,166.921356,41.325684,166.460938C42.069942,165.755249,42.476746,164.764343,42.443115,163.739258C42.427982,163.093018,42.362846,162.448929,42.248291,161.812744C42.07119,160.844055,41.871147,159.87941,41.648438,158.920166C42.206833,159.821655,42.760178,160.725952,43.308594,161.633301L44.155273,162.982178C45.986259,165.86879,47.962349,168.660507,50.076172,171.346924C50.654068,172.035782,51.29747,172.666916,51.997314,173.231445C52.584923,173.690964,53.308029,173.943481,54.053955,173.949463C54.944836,173.828522,55.772152,173.420792,56.410645,172.787842C57.548027,171.713791,58.525726,170.482361,59.313965,169.131104C58.952057,170.453278,58.474884,171.74118,57.887939,172.97998C57.325432,174.081879,56.581078,175.081177,55.686279,175.935547C55.269543,176.361649,54.841797,176.776703,54.40332,177.18042L54.75,177.781006C55.402603,178.825653,56.063705,179.862,56.73584,180.894043L58.325928,183.458008L58.939209,184.453857C60.363777,186.722763,61.951202,188.885269,63.688965,190.924316L64.008789,190.621826C64.447815,190.203293,64.835495,189.734146,65.163818,189.224121L69.421387,182.444336C69.991653,181.462799,70.674767,180.551346,71.456787,179.728516L72.652832,178.525146C73.739456,177.474533,74.616386,176.226379,75.236328,174.8479L73.376709,168.920654C72.950516,167.55806,72.399338,166.237747,71.730225,164.976563L71.594482,164.661133C71.2929,163.930756,71.190979,163.133316,71.299316,162.350586L71.339844,161.895264C72.62796,164.889236,74.01358,167.840851,75.494141,170.744629C76.427795,173.241425,77.389099,175.727783,78.37793,178.203125C77.641663,179.13295,76.91571,180.058182,76.187744,180.994629L75.385742,181.977295C76.625153,184.523743,78.071442,186.964249,79.709961,189.27417C80.170212,189.892319,80.696754,190.458206,81.280273,190.96167C81.722885,191.320541,82.300201,191.468552,82.86084,191.366699L83.050781,191.367432C83.332062,191.410065,83.552582,191.630844,83.59375,191.912354L83.612793,192.047607L83.768555,193.017334L83.914795,193.989014C84.129547,194.955246,84.508972,195.877243,85.036377,196.714844C85.885696,197.963623,86.749832,199.203827,87.627197,200.433105L88.223389,201.344971L88.795166,202.281006C88.851234,202.020432,88.903641,201.759109,88.952393,201.49707C89.292152,201.09761,89.596596,200.669403,89.862305,200.217285L98.738525,180.04834C99.148788,178.266403,99.636444,176.503357,100.200203,174.763916C101.002586,172.414459,102.063133,170.16127,103.362297,168.045654L103.679688,167.582031C103.014069,169.902405,102.401337,172.237854,101.842041,174.586182C101.623703,175.619431,101.491341,176.669006,101.446289,177.724121C101.412567,178.955917,101.765343,180.167328,102.455078,181.188477C103.155296,182.188507,103.889427,183.164291,104.65625,184.114258C104.847267,183.472977,105.042282,182.834976,105.242432,182.196533L105.468513,181.401611C106.156601,178.902298,106.558449,176.332733,106.66626,173.742676L106.712891,172.822266C106.764267,171.728638,106.91568,170.641937,107.165283,169.575928C107.495872,168.19487,108.05117,166.877563,108.808838,165.676514C109.265007,164.975708,109.888023,164.398972,110.621834,163.998047C110.967247,163.844238,111.32579,163.721756,111.693123,163.63208L114.69458,163.473877L117.695801,163.312744L118.016113,162.70874C118.853378,161.195587,119.978493,159.860809,121.328133,158.779541C122.33107,157.99585,123.34697,157.227417,124.374023,156.475586L124.972168,156.015137C126.507156,154.825027,127.808868,153.361359,128.811768,151.697998L129.30127,150.921875C128.980957,152.742599,128.133835,154.429413,126.864754,155.773682C125.922096,156.743607,124.905006,157.638275,123.822746,158.449463L123.03418,159.090576C121.759773,160.124741,120.637329,161.333221,119.699951,162.68042C119.132248,163.4823,118.584,164.297516,118.05542,165.125732C116.209297,165.180038,114.37532,165.443069,112.588379,165.909912C111.944687,166.110519,111.34137,166.422638,110.805656,166.832031C110.050018,167.46492,109.464729,168.276688,109.103027,169.193604C108.945412,169.553726,108.803772,169.920624,108.678467,170.293213C108.69249,171.2565,108.792389,172.216599,108.977051,173.162109C109.360542,174.630447,110.059189,175.99791,111.02417,177.169189L111.476318,177.720947C111.526314,176.669846,111.726868,175.631348,112.071777,174.637207L112.480217,173.54541C112.552544,175.028824,112.691093,176.508224,112.895508,177.979248C113.086067,179.039093,113.556137,180.028961,114.25708,180.846436C114.687248,181.394501,115.190567,181.880951,115.75293,182.292236C116.49205,180.360046,117.320396,178.463272,118.235352,176.60791C119.011093,175.075439,119.875061,173.589325,120.822998,172.156982C122.941643,168.857986,125.236473,165.675293,127.697273,162.623047C127.599586,164.877319,127.610832,167.134979,127.730957,169.388184L127.832764,170.75293L129.419922,167.768555C130.177734,166.318787,130.988281,164.762146,131.741699,163.310059L132.128906,162.586426C133.527542,159.908157,135.49649,157.568878,137.896729,155.733643C138.504288,155.247635,139.121094,154.773041,139.746582,154.310303L139.628418,154.719971C139.443985,155.369263,139.062592,155.945313,138.536865,156.368652L138.339111,156.575195C137.741196,157.264984,137.448959,158.167862,137.529541,159.077148C137.5345,159.531082,137.563583,159.984467,137.616699,160.435303C138.49939,159.022202,139.518341,157.698898,140.658936,156.484375C141.952545,155.127136,143.397522,153.922745,144.965576,152.894775C145.758514,152.406754,146.747681,151.755615,147.7827,151.290726C148.399002,151.013901,152.733124,149.467133,153.007355,149.374207L147.095901,153.35672C147.240814,153.64444,147.662796,154.63797,148.062012,155.274902C149.376419,157.371994,151.197403,158.826492,152.359375,160.890625L152.805176,161.649902L153.227783,161.44165C154.237701,160.909332,155.311066,160.50708,156.422119,160.244629C157.208939,160.075943,158.015717,160.019516,158.818359,160.077148C159.227295,160.102463,159.635651,160.136078,160.043213,160.177979C161.273941,161.742493,162.4375,163.358871,163.530518,165.022461C164.544891,166.628082,165.452682,168.298584,166.248047,170.023193C166.683228,170.936935,167.114502,171.853867,167.540771,172.771484C168.424774,170.963623,169.221802,169.114319,169.928955,167.230225C170.374695,165.963791,170.794647,164.687897,171.188232,163.404297L171.621094,162.131348C172.514374,159.536758,173.803284,157.095367,175.441895,154.894287L175.130371,155.924805C174.952011,156.498734,174.759033,157.068192,174.551758,157.632324L174.327148,158.311279C173.92485,159.485397,173.992722,160.770355,174.516602,161.895508L174.671875,162.265625C175.443176,160.737747,176.272018,159.239731,177.156738,157.774658C178.219528,156.033936,179.591354,154.501572,181.204346,153.253418L182.06665,152.560303C181.839462,151.820953,181.553024,151.101059,181.210205,150.407715C180.910355,149.820892,180.494324,149.301071,179.987305,148.880127C178.992798,148.107346,177.942871,147.408722,176.845947,146.789795C175.936584,146.265518,175.023407,145.751053,174.10376,145.244873L174.907471,145.272217z"/>
    <path transform="matrix(0.600998,0,0,-0.600998,54.618652,-455.109985)" style="stroke:#0000ff;stroke-width:0.083195mm;fill:none" d="M71.199997,-115.57L72.769997,-117.329987L72.459999,-119.739998C75.849998,-119.110001,72.860001,-118.32,76.959999,-119.839996C76.449997,-115.790001,76.5,-118.019997,78.279999,-115.669998L75.799995,-115.169998L74.849998,-113.160004C72.830002,-115.290001,74.849998,-114.939987,71.199997,-115.57z"/>
    <path transform="matrix(0.600998,0,0,-0.600998,138.247208,-426.710876)" style="stroke:#0000ff;stroke-width:0.083195mm;fill:none" d="M71.199997,-115.57L72.769997,-117.329987L72.459999,-119.739998C75.849998,-119.110001,72.860001,-118.32,76.959999,-119.839996C76.449997,-115.790001,76.5,-118.019997,78.279999,-115.669998L75.799995,-115.169998L74.849998,-113.160004C72.830002,-115.290001,74.849998,-114.939987,71.199997,-115.57z"/>
    <path transform="matrix(0.600998,0,0,-0.600998,20.246414,-441.253967)" style="stroke:#0000ff;stroke-width:0.083195mm;fill:none" d="M71.199997,-115.57L72.769997,-117.329987L72.459999,-119.739998C75.849998,-119.110001,72.860001,-118.32,76.959999,-119.839996C76.449997,-115.790001,76.5,-118.019997,78.279999,-115.669998L75.799995,-115.169998L74.849998,-113.160004C72.830002,-115.290001,74.849998,-114.939987,71.199997,-115.57z"/>
    <path transform="matrix(0.600998,0,0,-0.600998,99.884262,-411.510193)" style="stroke:#0000ff;stroke-width:0.083195mm;fill:none" d="M71.199997,-115.57L72.769997,-117.329987L72.459999,-119.739998C75.849998,-119.110001,72.860001,-118.32,76.959999,-119.839996C76.449997,-115.790001,76.5,-118.019997,78.279999,-115.669998L75.799995,-115.169998L74.849998,-113.160004C72.830002,-115.290001,74.849998,-114.939987,71.199997,-115.57z"/>
    <path transform="matrix(1,0,0,-1,0,0)" style="stroke:#0000ff;stroke-width:0.050000mm;fill:none" d="M127.361816,409.411133L127.499023,409.433105L127.626457,409.466797L127.745117,409.511719L127.864754,409.570801L127.972168,409.637207L128.07373,409.714844L128.168457,409.802246L128.253906,409.897949L128.330566,410.001953L128.395508,410.111328L128.45166,410.22998L128.494141,410.349609L128.52832,410.48584L128.546387,410.611328L128.552246,410.750977L128.543945,410.887207L128.522461,411.020996L128.48877,411.147949L128.443359,411.268066L128.384766,411.387207L128.317871,411.495117L128.240234,411.59668L128.152344,411.691895L128.056152,411.77832L127.95459,411.852539L127.842293,411.919434L127.726067,411.974121L127.603027,412.018066L127.470207,412.050781L127.34375,412.069336L127.204102,412.075195L127.067871,412.066895L126.934082,412.04541L126.807129,412.011719L126.687012,411.966309L126.567383,411.907227L126.459961,411.84082L126.358398,411.763184L126.263184,411.675293L126.176758,411.579102L126.101563,411.476074L126.035156,411.364258L125.980469,411.248047L125.9375,411.126953L125.904793,410.995605L125.88623,410.863281L125.879883,410.725098L125.888184,410.591309L125.909668,410.456055L125.943359,410.331055L125.98877,410.209961L126.047363,410.091797L126.116211,409.980469L126.192871,409.879883L126.278809,409.786621L126.375977,409.700195L126.477539,409.625977L126.590332,409.558594L126.710449,409.501953L126.82666,409.460938L126.958977,409.427734L127.091309,409.40918L127.229492,409.40332L127.361816,409.411133z"/>
    <path transform="matrix(1,0,0,-1,0,0)" style="stroke:#0000ff;stroke-width:0.050000mm;fill:none" d="M212.438477,207.118652L212.560059,207.13623L212.687988,207.167969L212.810059,207.210938L212.92627,207.265137L213.041992,207.333984L213.14502,207.409668L213.251953,207.506836L213.341797,207.606445L213.417969,207.710449L213.489258,207.831543L213.542969,207.947754L213.584961,208.069824L213.615723,208.195801L213.633301,208.319824L213.639648,208.450195L213.632813,208.57959L213.614258,208.706055L213.583496,208.83252L213.540527,208.954102L213.48584,209.071289L213.418945,209.184082L213.340332,209.290039L213.244141,209.395996L213.144531,209.48584L213.034668,209.566406L212.922852,209.631836L212.802734,209.6875L212.683594,209.729004L212.554688,209.759766L212.428223,209.777832L212.302246,209.783691L212.168457,209.776855L212.046875,209.759277L211.92041,209.728027L211.797852,209.685059L211.678223,209.628906L211.564941,209.561523L211.461914,209.48584L211.355469,209.38916L211.263672,209.287109L211.187988,209.183594L211.118164,209.064941L211.063477,208.945801L211.022949,208.82959L210.991699,208.69873L210.973633,208.572266L210.967285,208.445313L210.974121,208.314453L210.992676,208.188477L211.022949,208.06543L211.067383,207.939453L211.12207,207.822754L211.187988,207.711426L211.266602,207.605469L211.362793,207.499512L211.462402,207.409668L211.572266,207.329102L211.684082,207.263672L211.805664,207.20752L211.926758,207.165527L212.047363,207.13623L212.178711,207.117676L212.304688,207.111816L212.438477,207.118652z"/>
    <path transform="matrix(1,0,0,-1,0,0)" style="stroke:#0000ff;stroke-width:0.050000mm;fill:none" d="M45.822266,205.666016L45.947754,205.686035L46.072266,205.718262L46.191895,205.762207L46.313477,205.821289L46.422363,205.887695L46.53125,205.970215L46.630371,206.0625L46.721191,206.166504L46.798828,206.275391L46.866699,206.394043L46.916992,206.507813L46.959473,206.635254L46.987305,206.755371L47.003418,206.884277L47.007813,207.01709L47,207.143555L46.980469,207.265137L46.946289,207.39502L46.901855,207.516602L46.846191,207.632324L46.776367,207.746582L46.697754,207.850098L46.602051,207.952637L46.5,208.04248L46.390625,208.120605L46.272949,208.1875L46.157227,208.239258L46.032227,208.280273L45.910645,208.308105L45.775879,208.325684L45.654297,208.32959L45.521973,208.321289L45.396484,208.30127L45.271973,208.269043L45.152344,208.225098L45.030762,208.166016L44.921875,208.099609L44.812988,208.01709L44.713867,207.924805L44.623535,207.821289L44.54541,207.711914L44.478516,207.594238L44.427246,207.479492L44.385742,207.354492L44.356445,207.226074L44.34082,207.105469L44.336426,206.969727L44.344238,206.845703L44.365234,206.71582L44.396973,206.593262L44.440918,206.473633L44.499023,206.353516L44.567871,206.240723L44.647461,206.135742L44.742188,206.034668L44.844238,205.944824L44.953613,205.866699L45.068848,205.80127L45.188477,205.748047L45.313965,205.706543L45.433594,205.679199L45.568359,205.661621L45.689941,205.657715L45.822266,205.666016z"/>
    <path transform="matrix(1,0,0,-1,0,0)" style="stroke:#0000ff;stroke-width:0.050000mm;fill:none" d="M173.880371,181.271973L174.015137,181.291016L174.143066,181.322754L174.272461,181.369141L174.398926,181.429199L174.509277,181.496094L174.618652,181.578613L174.712891,181.665527L174.799316,181.762207L174.875,181.865723L174.942383,181.979004L174.994141,182.089355L175.040039,182.217773L175.070313,182.336914L175.089844,182.463379L175.097168,182.591797L175.091309,182.722656L175.071777,182.859863L175.041504,182.983887L174.994141,183.115723L174.93457,183.241699L174.868652,183.350098L174.784668,183.461426L174.69873,183.554199L174.601074,183.641602L174.497559,183.717285L174.384277,183.784668L174.273926,183.836426L174.145508,183.882324L174.026367,183.912598L173.895996,183.932617L173.770508,183.939453L173.641113,183.933594L173.507813,183.914551L173.374512,183.881836L173.25,183.837402L173.120605,183.775879L173.011719,183.709961L172.902832,183.62793L172.809082,183.541016L172.72168,183.443359L172.644531,183.337402L172.580078,183.229004L172.527344,183.117188L172.481445,182.98877L172.451172,182.868164L172.431152,182.73877L172.423828,182.611328L172.429688,182.483398L172.44873,182.348145L172.480469,182.220703L172.527832,182.087891L172.586426,181.964844L172.652832,181.855957L172.73877,181.742188L172.82373,181.649902L172.919922,181.563965L173.025879,181.486816L173.134277,181.422363L173.247559,181.369141L173.372559,181.324219L173.496582,181.292969L173.625,181.273438L173.751465,181.266602L173.880371,181.271973z"/>
    <path transform="matrix(1,0,0,-1,0,0)" style="stroke:#0000ff;stroke-width:0.050000mm;fill:none" d="M84.821777,180.499023L84.945801,180.52002L85.072754,180.554688L85.191895,180.599121L85.303223,180.654785L85.419922,180.726074L85.516602,180.799316L85.613281,180.888184L85.70166,180.987793L85.776367,181.090332L85.845703,181.208984L85.902832,181.334961L85.947754,181.467773L85.976563,181.594238L85.992676,181.724121L85.996582,181.858887L85.986816,181.986816L85.96582,182.11084L85.931641,182.236816L85.885742,182.357422L85.831543,182.467773L85.759277,182.584961L85.685547,182.682617L85.59668,182.778809L85.498047,182.866699L85.39502,182.941406L85.273926,183.011719L85.152832,183.066895L85.018066,183.112793L84.891113,183.141602L84.762207,183.157715L84.626465,183.161621L84.499023,183.151855L84.375,183.130859L84.251953,183.097168L84.125,183.049316L84.017578,182.996582L83.899902,182.923828L83.802734,182.850586L83.70752,182.762695L83.618164,182.662109L83.541016,182.555664L83.474609,182.441406L83.416992,182.314453L83.374023,182.187012L83.344238,182.057617L83.327637,181.924805L83.324219,181.790527L83.333008,181.666504L83.355469,181.538574L83.388672,181.415527L83.437012,181.287598L83.48877,181.182617L83.561523,181.064941L83.635742,180.966797L83.724609,180.871094L83.82373,180.783203L83.925781,180.708984L84.044922,180.639648L84.172363,180.581543L84.298828,180.539063L84.428711,180.509277L84.560547,180.492676L84.692871,180.489258L84.821777,180.499023z"/>
    <path transform="matrix(1,0,0,-1,0,0)" style="stroke:#0000ff;stroke-width:0.050000mm;fill:none" d="M128.391113,172.196289L128.521484,172.216309L128.646973,172.248047L128.772461,172.293945L128.888184,172.349609L128.996582,172.416016L129.102539,172.495117L129.195801,172.580078L129.280762,172.67334L129.359863,172.779297L129.42627,172.887695L129.481934,173.003418L129.527832,173.128906L129.55957,173.254395L129.57959,173.384766L129.586914,173.524902L129.57959,173.665039L129.560059,173.793457L129.526855,173.92334L129.483398,174.04248L129.425781,174.162109L129.358398,174.272461L129.281738,174.375L129.195801,174.469238L129.101563,174.555664L129,174.631348L128.885742,174.700684L128.772461,174.755371L128.646973,174.80127L128.521484,174.833008L128.391113,174.853027L128.250977,174.860352L128.11084,174.853027L127.982422,174.833496L127.852539,174.800293L127.733398,174.756836L127.612793,174.69873L127.505859,174.633789L127.399902,174.554199L127.306641,174.469238L127.22168,174.375977L127.14209,174.27002L127.077148,174.163086L127.019043,174.04248L126.974609,173.92041L126.941887,173.794922L126.922363,173.665039L126.915039,173.524414L126.922363,173.385254L126.941887,173.257324L126.975098,173.126953L127.020508,173.003418L127.075203,172.890137L127.144531,172.775879L127.220207,172.674316L127.306641,172.580078L127.400879,172.494141L127.503418,172.41748L127.61377,172.350098L127.733398,172.29248L127.852539,172.249023L127.982422,172.21582L128.11084,172.196289L128.250977,172.188965L128.391113,172.196289z"/>
</svg>
